# xmcd
#
# Track frame offsets:
# 182
# 14310
# 23040
# 33405
# 45810
# 58665
# 99522
# 119642
# 127710
# 138412
# 162945
# 171907
#
# Disc length: 2397 seconds
#
#
# Revision: 0
# Processed by: cddbd v1.5.2PL0 Copyright (c) Steve Scherf et al.
# Submitted via: FreeRIP 2.96 
#
DISCID=92095b0c
DTITLE=John Fahey - The Voice of the Turtle
DYEAR=1968
DGENRE=Acoustic
TTITLE0=Bottleneck Blues
TTITLE1=Bill Cheatum
TTITLE2=Lewisdale Blues
TTITLE3=Bean Vine Blues
TTITLE4=Bean Vine Blues #2
TTITLE5=A Raga Called Pat Pt. III
TTITLE6=A Raga Called Pat Pt. IV
TTITLE7=Train
TTITLE8=Je Ne Me Suis Reveillais Matin Pas En May
TTITLE9=The Story of Dorothy Gooch Pt. I
TTITLE10=Nine-Pound Hammer
TTITLE11=Lonesome Valley
EXTD=
EXTT0=
EXTT1=
EXTT2=
EXTT3=
EXTT4=
EXTT5=
EXTT6=
EXTT7=
EXTT8=
EXTT9=
EXTT10=
EXTT11=
PLAYORDER=
